# Blender v2.82 (sub 7) OBJ File: ''
# www.blender.org
mtllib paint-02.mtl
v 2.601850 3.335980 -0.049236
v 2.601850 -3.341410 -0.049238
v 2.829550 3.565530 -0.049236
v 2.829550 -3.570960 -0.049238
v -2.586660 -3.341410 -0.049238
v -2.814370 -3.570960 -0.049238
v -2.586660 3.335980 -0.049236
v -2.814370 3.565530 -0.049236
vt 0.957213 0.969817
vt 0.957213 0.030182
vt 1.000000 1.000000
vt 1.000000 0.000000
vt 0.042786 0.030182
vt 0.000000 0.000000
vt 0.042786 0.969817
vt 0.000000 1.000000
vn 0.0000 -0.0000 1.0000
g _1_0.001__1_0.001_Mdl_0_Mtl_W002_Diffuse10.001
usemtl Mdl_0_Mtl_W002_Diffuse10.001
s off
f 1/1/1 2/2/1 3/3/1
f 3/3/1 2/2/1 4/4/1
f 2/2/1 5/5/1 4/4/1
f 4/4/1 5/5/1 6/6/1
f 5/5/1 7/7/1 6/6/1
f 8/8/1 1/1/1 3/3/1
f 6/6/1 7/7/1 8/8/1
f 7/7/1 1/1/1 8/8/1
v 2.265960 3.071650 0.254250
v 2.265960 -3.070460 0.254248
v 2.548440 3.267280 0.254250
v 2.548440 -3.272710 0.254248
v 2.236010 -3.043250 0.170665
v 2.236010 3.044450 0.170665
v -2.245490 -3.043250 0.170665
v -2.245490 3.044450 0.170665
v -2.533260 3.267280 0.254250
v -2.275440 3.071650 0.254250
v -2.533260 -3.272710 0.254248
v -2.275440 -3.070460 0.254248
v 2.601880 -3.341390 -0.049131
v 2.601880 3.335960 -0.049129
v -2.586690 3.335960 -0.049129
v -2.586690 -3.341390 -0.049131
vt 0.773247 0.975310
vt 0.773247 0.030915
vt 0.807062 1.000000
vt 0.807062 0.000000
vt 0.773247 0.030915
vt 0.773247 0.975310
vt 0.028809 0.030915
vt 0.028809 0.975310
vt 0.000000 1.000000
vt 0.028809 0.975310
vt 0.000000 0.000000
vt 0.028809 0.030915
vt 0.781151 0.024597
vt 0.781151 0.975402
vt 0.025910 0.975402
vt 0.025910 0.024597
vn -0.2075 -0.2045 0.9566
vn -0.2075 0.2045 0.9566
vn 0.5286 0.5090 0.6793
vn 0.5286 -0.5090 0.6793
vn -0.4678 0.4804 0.7418
vn -0.4678 -0.4804 0.7418
vn 0.4678 0.4804 0.7418
vn 0.4678 -0.4804 0.7418
vn -0.5286 0.5090 0.6793
vn 0.2075 -0.2045 0.9566
vn -0.5286 -0.5090 0.6793
vn 0.2075 0.2045 0.9566
vn 0.6711 -0.6888 0.2741
vn 0.6711 0.6888 0.2741
vn -0.6711 0.6888 0.2741
vn -0.6711 -0.6888 0.2741
g _0_0.001__0_0.001_Mdl_0_Mtl_W014_W014_Diffuse2
usemtl Mdl_0_Mtl_W014_W014_Diffuse2
s 1
f 9/9/2 10/10/3 11/11/4
f 11/11/4 10/10/3 12/12/5
f 9/9/2 13/13/6 10/10/3
f 14/14/7 13/13/6 9/9/2
f 13/13/6 14/14/7 15/15/8
f 13/13/6 15/15/8 10/10/3
f 15/15/8 14/14/7 16/16/9
f 11/11/4 17/17/10 9/9/2
f 9/9/2 17/17/10 18/18/11
f 18/18/11 14/14/7 9/9/2
f 16/16/9 14/14/7 18/18/11
f 12/12/5 10/10/3 19/19/12
f 20/20/13 16/16/9 18/18/11
f 15/15/8 16/16/9 20/20/13
f 10/10/3 15/15/8 20/20/13
f 19/19/12 20/20/13 17/17/10
f 19/19/12 10/10/3 20/20/13
f 17/17/10 20/20/13 18/18/11
f 19/19/12 21/21/14 12/12/5
f 21/21/14 22/22/15 12/12/5
f 12/12/5 22/22/15 11/11/4
f 11/11/4 23/23/16 17/17/10
f 22/22/15 23/23/16 11/11/4
f 23/23/16 24/24/17 17/17/10
f 17/17/10 24/24/17 19/19/12
f 24/24/17 21/21/14 19/19/12
