# Blender v2.82 (sub 7) OBJ File: ''
# www.blender.org
mtllib paint-01.mtl
v 2.307000 3.335990 -0.049236
v 2.307000 -3.341420 -0.049238
v 2.509440 3.565550 -0.049236
v 2.509440 -3.570980 -0.049238
v -2.307000 -3.341420 -0.049238
v -2.509440 -3.570980 -0.049238
v -2.307000 3.335990 -0.049236
v -2.509440 3.565550 -0.049236
vt 0.957213 0.969817
vt 0.957213 0.030182
vt 1.000000 1.000000
vt 1.000000 0.000000
vt 0.042786 0.030182
vt 0.000000 0.000000
vt 0.042786 0.969817
vt 0.000000 1.000000
vn 0.0000 -0.0000 1.0000
g _1_0__1_0_Mdl_0_Mtl_W002_Diffuse10
usemtl Mdl_0_Mtl_W002_Diffuse10
s off
f 1/1/1 2/2/1 3/3/1
f 3/3/1 2/2/1 4/4/1
f 2/2/1 5/5/1 4/4/1
f 4/4/1 5/5/1 6/6/1
f 5/5/1 7/7/1 6/6/1
f 8/8/1 1/1/1 3/3/1
f 6/6/1 7/7/1 8/8/1
f 7/7/1 1/1/1 8/8/1
v 2.008270 3.071640 0.254378
v 2.008270 -3.070450 0.254377
v 2.259540 3.267270 0.254378
v 2.259540 -3.272700 0.254376
v 1.981680 -3.043240 0.170826
v 1.981680 3.044440 0.170826
v -2.003690 -3.043240 0.170826
v -2.003690 3.044440 0.170826
v -2.259540 3.267270 0.254378
v -2.030280 3.071640 0.254378
v -2.259540 -3.272700 0.254376
v -2.030280 -3.070450 0.254377
v 2.307020 -3.341380 -0.049259
v 2.307020 3.335950 -0.049257
v -2.307020 3.335950 -0.049257
v -2.307020 -3.341380 -0.049259
vt 0.637104 0.975310
vt 0.637104 0.030915
vt 0.670919 1.000000
vt 0.670919 0.000000
vt 0.637104 0.030915
vt 0.637104 0.975310
vt 0.028809 0.030915
vt 0.028809 0.975310
vt 0.000000 1.000000
vt 0.028809 0.975310
vt 0.000000 0.000000
vt 0.028809 0.030915
vt 0.645008 0.024597
vt 0.645008 0.975402
vt 0.025910 0.975402
vt 0.025910 0.024597
vn -0.2103 -0.2110 0.9546
vn -0.2103 0.2110 0.9546
vn 0.5355 0.5085 0.6742
vn 0.5355 -0.5085 0.6742
vn -0.4819 0.4790 0.7337
vn -0.4819 -0.4790 0.7337
vn 0.4819 0.4790 0.7337
vn 0.4819 -0.4790 0.7337
vn -0.5355 0.5085 0.6742
vn 0.2103 -0.2110 0.9546
vn -0.5355 -0.5085 0.6742
vn 0.2103 0.2110 0.9546
vn 0.6698 -0.6948 0.2619
vn 0.6698 0.6948 0.2619
vn -0.6698 0.6948 0.2619
vn -0.6698 -0.6948 0.2619
g _0_0__0_0_Mdl_0_Mtl_W014_W014_Diffuse
usemtl Mdl_0_Mtl_W014_W014_Diffuse
s 1
f 9/9/2 10/10/3 11/11/4
f 11/11/4 10/10/3 12/12/5
f 9/9/2 13/13/6 10/10/3
f 14/14/7 13/13/6 9/9/2
f 13/13/6 14/14/7 15/15/8
f 13/13/6 15/15/8 10/10/3
f 15/15/8 14/14/7 16/16/9
f 11/11/4 17/17/10 9/9/2
f 9/9/2 17/17/10 18/18/11
f 18/18/11 14/14/7 9/9/2
f 16/16/9 14/14/7 18/18/11
f 12/12/5 10/10/3 19/19/12
f 20/20/13 16/16/9 18/18/11
f 15/15/8 16/16/9 20/20/13
f 10/10/3 15/15/8 20/20/13
f 19/19/12 20/20/13 17/17/10
f 19/19/12 10/10/3 20/20/13
f 17/17/10 20/20/13 18/18/11
f 19/19/12 21/21/14 12/12/5
f 21/21/14 22/22/15 12/12/5
f 12/12/5 22/22/15 11/11/4
f 11/11/4 23/23/16 17/17/10
f 22/22/15 23/23/16 11/11/4
f 23/23/16 24/24/17 17/17/10
f 17/17/10 24/24/17 19/19/12
f 24/24/17 21/21/14 19/19/12
