# Blender v2.82 (sub 7) OBJ File: ''
# www.blender.org
mtllib birdbath.mtl
v 0.119527 0.100000 -0.119527
v 0.175000 0.100000 0.000000
v 0.119527 0.000000 -0.119527
v 0.175000 0.000000 0.000000
v 0.000000 0.100000 -0.175000
v 0.119527 0.100000 -0.119527
v 0.000000 0.000000 -0.175000
v 0.119527 0.000000 -0.119527
v -0.119527 0.100000 -0.119527
v 0.000000 0.100000 -0.175000
v -0.119527 0.000000 -0.119527
v 0.000000 0.000000 -0.175000
v -0.175000 0.100000 -0.000002
v -0.119527 0.100000 -0.119527
v -0.175000 0.000000 -0.000002
v -0.119527 0.000000 -0.119527
v -0.119527 0.100000 0.119528
v -0.175000 0.100000 -0.000002
v -0.119527 -0.000000 0.119528
v -0.175000 0.000000 -0.000002
v 0.000000 0.100000 0.175000
v -0.119527 0.100000 0.119528
v 0.000000 -0.000000 0.175000
v -0.119527 -0.000000 0.119528
v 0.119527 0.100000 0.119527
v 0.000000 0.100000 0.175000
v 0.119527 -0.000000 0.119527
v 0.000000 -0.000000 0.175000
v 0.175000 0.100000 0.000000
v 0.119527 0.100000 0.119527
v 0.175000 0.000000 0.000000
v 0.119527 -0.000000 0.119527
v 0.145558 0.300000 0.000000
v 0.100000 0.175000 0.000000
v 0.099418 0.300000 -0.099418
v 0.068301 0.175000 -0.068301
v 0.059383 0.595091 -0.059383
v 0.086942 0.595091 0.000000
v 0.047715 0.915605 -0.047715
v 0.069859 0.915605 0.000000
v 0.070253 0.984698 -0.070253
v 0.102857 0.984698 0.000000
v 0.099418 0.300000 -0.099418
v 0.068301 0.175000 -0.068301
v 0.000000 0.300000 -0.145558
v 0.000000 0.175000 -0.100000
v 0.000000 0.595091 -0.086942
v 0.059383 0.595091 -0.059383
v 0.000000 0.915605 -0.069859
v 0.047715 0.915605 -0.047715
v 0.000000 0.984698 -0.102857
v 0.070253 0.984698 -0.070253
v 0.000000 0.300000 -0.145558
v 0.000000 0.175000 -0.100000
v -0.099418 0.300000 -0.099418
v -0.068301 0.175000 -0.068301
v -0.059383 0.595091 -0.059383
v 0.000000 0.595091 -0.086942
v -0.047715 0.915605 -0.047715
v 0.000000 0.915605 -0.069859
v -0.070253 0.984698 -0.070253
v 0.000000 0.984698 -0.102857
v -0.099418 0.300000 -0.099418
v -0.068301 0.175000 -0.068301
v -0.145558 0.300000 0.000000
v -0.100000 0.175000 0.000000
v -0.086942 0.595091 0.000000
v -0.059383 0.595091 -0.059383
v -0.069859 0.915605 0.000000
v -0.047715 0.915605 -0.047715
v -0.102857 0.984698 0.000000
v -0.070253 0.984698 -0.070253
v -0.145558 0.300000 0.000000
v -0.100000 0.175000 0.000000
v -0.099418 0.300000 0.099418
v -0.068301 0.175000 0.068301
v -0.059383 0.595091 0.059383
v -0.086942 0.595091 0.000000
v -0.047715 0.915605 0.047715
v -0.069859 0.915605 0.000000
v -0.070253 0.984698 0.070253
v -0.102857 0.984698 0.000000
v -0.099418 0.300000 0.099418
v -0.068301 0.175000 0.068301
v 0.000000 0.300000 0.145558
v 0.000000 0.175000 0.100000
v 0.000000 0.595091 0.086942
v -0.059383 0.595091 0.059383
v 0.000000 0.915605 0.069859
v -0.047715 0.915605 0.047715
v 0.000000 0.984698 0.102857
v -0.070253 0.984698 0.070253
v 0.000000 0.300000 0.145558
v 0.000000 0.175000 0.100000
v 0.099418 0.300000 0.099418
v 0.068301 0.175000 0.068301
v 0.059383 0.595091 0.059383
v 0.000000 0.595091 0.086942
v 0.047715 0.915605 0.047715
v 0.000000 0.915605 0.069859
v 0.070253 0.984698 0.070253
v 0.000000 0.984698 0.102857
v 0.099418 0.300000 0.099418
v 0.068301 0.175000 0.068301
v 0.145558 0.300000 0.000000
v 0.100000 0.175000 0.000000
v 0.086942 0.595091 0.000000
v 0.059383 0.595091 0.059383
v 0.069859 0.915605 0.000000
v 0.047715 0.915605 0.047715
v 0.102857 0.984698 0.000000
v 0.070253 0.984698 0.070253
v 0.100000 0.175000 0.000000
v 0.175000 0.100000 0.000000
v 0.068301 0.175000 -0.068301
v 0.119527 0.100000 -0.119527
v 0.068301 0.175000 0.068301
v 0.119527 0.100000 0.119527
v 0.100000 0.175000 0.000000
v 0.175000 0.100000 0.000000
v 0.000000 0.175000 0.100000
v 0.000000 0.100000 0.175000
v 0.068301 0.175000 0.068301
v 0.119527 0.100000 0.119527
v -0.068301 0.175000 0.068301
v -0.119527 0.100000 0.119528
v 0.000000 0.175000 0.100000
v 0.000000 0.100000 0.175000
v -0.100000 0.175000 0.000000
v -0.175000 0.100000 -0.000002
v -0.068301 0.175000 0.068301
v -0.119527 0.100000 0.119528
v -0.068301 0.175000 -0.068301
v -0.119527 0.100000 -0.119527
v -0.100000 0.175000 0.000000
v -0.175000 0.100000 -0.000002
v 0.000000 0.175000 -0.100000
v 0.000000 0.100000 -0.175000
v -0.068301 0.175000 -0.068301
v -0.119527 0.100000 -0.119527
v 0.068301 0.175000 -0.068301
v 0.119527 0.100000 -0.119527
v 0.000000 0.175000 -0.100000
v 0.000000 0.100000 -0.175000
v 0.070253 0.984698 -0.070253
v 0.275166 1.084158 -0.275166
v 0.102857 0.984698 0.000000
v 0.402871 1.084158 0.000000
v 0.000000 0.984698 -0.102857
v 0.000000 1.084158 -0.402871
v 0.070253 0.984698 -0.070253
v 0.275166 1.084158 -0.275166
v -0.070253 0.984698 -0.070253
v -0.275166 1.084158 -0.275166
v 0.000000 0.984698 -0.102857
v 0.000000 1.084158 -0.402871
v -0.102857 0.984698 0.000000
v -0.402871 1.084158 0.000000
v -0.070253 0.984698 -0.070253
v -0.275166 1.084158 -0.275166
v -0.070253 0.984698 0.070253
v -0.275166 1.084158 0.275166
v -0.102857 0.984698 0.000000
v -0.402871 1.084158 0.000000
v 0.000000 0.984698 0.102857
v 0.000000 1.084158 0.402871
v -0.070253 0.984698 0.070253
v -0.275166 1.084158 0.275166
v 0.070253 0.984698 0.070253
v 0.275166 1.084158 0.275166
v 0.000000 0.984698 0.102857
v 0.000000 1.084158 0.402871
v 0.102857 0.984698 0.000000
v 0.402871 1.084158 0.000000
v 0.070253 0.984698 0.070253
v 0.275166 1.084158 0.275166
v 0.275166 1.084158 -0.275166
v 0.262693 1.119664 -0.262693
v 0.402871 1.084158 0.000000
v 0.384609 1.119664 0.000000
v 0.000000 1.084158 -0.402871
v 0.000000 1.119664 -0.384609
v 0.275166 1.084158 -0.275166
v 0.262693 1.119664 -0.262693
v -0.275166 1.084158 -0.275166
v -0.262693 1.119664 -0.262693
v 0.000000 1.084158 -0.402871
v 0.000000 1.119664 -0.384609
v -0.402871 1.084158 0.000000
v -0.384609 1.119664 0.000000
v -0.275166 1.084158 -0.275166
v -0.262693 1.119664 -0.262693
v -0.275166 1.084158 0.275166
v -0.262693 1.119664 0.262693
v -0.402871 1.084158 0.000000
v -0.384609 1.119664 0.000000
v 0.000000 1.084158 0.402871
v 0.000000 1.119664 0.384609
v -0.275166 1.084158 0.275166
v -0.262693 1.119664 0.262693
v 0.275166 1.084158 0.275166
v 0.262693 1.119664 0.262693
v 0.000000 1.084158 0.402871
v 0.000000 1.119664 0.384609
v 0.402871 1.084158 0.000000
v 0.384609 1.119664 0.000000
v 0.275166 1.084158 0.275166
v 0.262693 1.119664 0.262693
v 0.262693 1.119664 -0.262693
v 0.218291 1.119664 -0.218291
v 0.384609 1.119664 0.000000
v 0.319601 1.119664 0.000000
v 0.000000 1.119664 -0.319601
v 0.000000 1.119664 -0.384609
v -0.218291 1.119664 -0.218291
v -0.262693 1.119664 -0.262693
v -0.319601 1.119664 0.000000
v -0.384609 1.119664 0.000000
v -0.262693 1.119664 0.262693
v -0.218291 1.119664 0.218291
v -0.384609 1.119664 0.000000
v -0.319601 1.119664 0.000000
v 0.000000 1.119664 0.319601
v 0.000000 1.119664 0.384609
v 0.218291 1.119664 0.218292
v 0.262693 1.119664 0.262693
v 0.319601 1.119664 0.000000
v 0.384609 1.119664 0.000000
v 0.034464 1.152808 -0.034464
v 0.000000 1.170953 0.000000
v 0.050458 1.152808 0.000000
v 0.000000 1.152808 -0.050458
v -0.034464 1.152808 -0.034464
v -0.050458 1.152808 0.000000
v -0.034464 1.152808 0.034464
v 0.000000 1.152808 0.050458
v 0.034464 1.152808 0.034464
v 0.218291 1.119664 -0.218291
v 0.203459 1.101459 -0.203459
v 0.319601 1.119664 0.000000
v 0.297884 1.101459 0.000000
v 0.000000 1.119664 -0.319601
v 0.000000 1.101459 -0.297884
v 0.218291 1.119664 -0.218291
v 0.203459 1.101459 -0.203459
v -0.218291 1.119664 -0.218291
v -0.203459 1.101459 -0.203459
v 0.000000 1.119664 -0.319601
v 0.000000 1.101459 -0.297884
v -0.319601 1.119664 0.000000
v -0.297884 1.101459 0.000000
v -0.218291 1.119664 -0.218291
v -0.203459 1.101459 -0.203459
v -0.218291 1.119664 0.218291
v -0.203459 1.101459 0.203459
v -0.319601 1.119664 0.000000
v -0.297884 1.101459 0.000000
v 0.000000 1.119664 0.319601
v 0.000000 1.101459 0.297884
v -0.218291 1.119664 0.218291
v -0.203459 1.101459 0.203459
v 0.218291 1.119664 0.218292
v 0.203459 1.101459 0.203459
v 0.000000 1.119664 0.319601
v 0.000000 1.101459 0.297884
v 0.319601 1.119664 0.000000
v 0.297884 1.101459 0.000000
v 0.218291 1.119664 0.218292
v 0.203459 1.101459 0.203459
v 0.203459 1.101459 -0.203459
v 0.000000 1.101459 0.000000
v 0.297884 1.101459 0.000000
v 0.000000 1.101459 -0.297884
v -0.203459 1.101459 -0.203459
v -0.297884 1.101459 0.000000
v -0.203459 1.101459 0.203459
v 0.000000 1.101459 0.000000
v -0.297884 1.101459 0.000000
v 0.000000 1.101459 0.297884
v 0.203459 1.101459 0.203459
v 0.297884 1.101459 0.000000
v 0.050458 1.152808 0.000000
v 0.069372 1.093159 0.000000
v 0.034464 1.152808 -0.034464
v 0.047382 1.093159 -0.047382
v 0.047382 1.093159 0.047382
v 0.034464 1.152808 0.034464
v 0.000000 1.093159 0.069372
v 0.000000 1.152808 0.050458
v -0.047382 1.093159 0.047382
v -0.034464 1.152808 0.034464
v 0.034464 1.152808 -0.034464
v 0.047382 1.093159 -0.047382
v 0.000000 1.152808 -0.050458
v 0.000000 1.093159 -0.069372
v -0.034464 1.152808 -0.034464
v -0.047382 1.093159 -0.047382
v -0.050458 1.152808 0.000000
v -0.069372 1.093159 0.000000
v -0.034464 1.152808 0.034464
v -0.047382 1.093159 0.047382
vt 0.758301 0.102417
vt 0.992676 0.102417
vt 0.758301 0.004395
vt 0.992676 0.004395
vt 0.992676 0.102417
vt 0.758301 0.102417
vt 0.992676 0.004395
vt 0.758301 0.004395
vt 0.992676 0.102417
vt 0.758301 0.102417
vt 0.992676 0.004395
vt 0.758301 0.004395
vt 0.992676 0.102417
vt 0.758301 0.102417
vt 0.992676 0.004395
vt 0.758301 0.004395
vt 0.992676 0.102417
vt 0.758301 0.102417
vt 0.992676 0.004395
vt 0.758301 0.004395
vt 0.758301 0.102417
vt 0.992676 0.102417
vt 0.758301 0.004395
vt 0.992676 0.004395
vt 0.758301 0.102417
vt 0.992676 0.102417
vt 0.758301 0.004395
vt 0.992676 0.004395
vt 0.758301 0.102417
vt 0.992676 0.102417
vt 0.758301 0.004395
vt 0.992676 0.004395
vt 0.968750 0.298584
vt 0.942383 0.175903
vt 0.782227 0.298584
vt 0.808594 0.175903
vt 0.818359 0.587891
vt 0.933105 0.587891
vt 0.818359 0.901855
vt 0.933105 0.901855
vt 0.790527 0.969727
vt 0.960938 0.969727
vt 0.782227 0.298584
vt 0.808594 0.175903
vt 0.968750 0.298584
vt 0.942383 0.175903
vt 0.933105 0.587891
vt 0.818359 0.587891
vt 0.933105 0.901855
vt 0.818359 0.901855
vt 0.960938 0.969727
vt 0.790527 0.969727
vt 0.782227 0.298584
vt 0.808594 0.175903
vt 0.968750 0.298584
vt 0.942383 0.175903
vt 0.933105 0.587891
vt 0.818359 0.587891
vt 0.933105 0.901855
vt 0.818359 0.901855
vt 0.960938 0.969727
vt 0.790527 0.969727
vt 0.782227 0.298584
vt 0.808594 0.175903
vt 0.968750 0.298584
vt 0.942383 0.175903
vt 0.933105 0.587891
vt 0.818359 0.587891
vt 0.933105 0.901855
vt 0.818359 0.901855
vt 0.960938 0.969727
vt 0.790527 0.969727
vt 0.782227 0.298584
vt 0.808594 0.175903
vt 0.968750 0.298584
vt 0.942383 0.175903
vt 0.933105 0.587891
vt 0.818359 0.587891
vt 0.933105 0.901855
vt 0.818359 0.901855
vt 0.960938 0.969727
vt 0.790527 0.969727
vt 0.968750 0.298584
vt 0.942383 0.175903
vt 0.782227 0.298584
vt 0.808594 0.175903
vt 0.818359 0.587891
vt 0.933105 0.587891
vt 0.818359 0.901855
vt 0.933105 0.901855
vt 0.790527 0.969727
vt 0.960938 0.969727
vt 0.968750 0.298584
vt 0.942383 0.175903
vt 0.782227 0.298584
vt 0.808594 0.175903
vt 0.818359 0.587891
vt 0.933105 0.587891
vt 0.818359 0.901855
vt 0.933105 0.901855
vt 0.790527 0.969727
vt 0.960938 0.969727
vt 0.968750 0.298584
vt 0.942383 0.175903
vt 0.782227 0.298584
vt 0.808594 0.175903
vt 0.818359 0.587891
vt 0.933105 0.587891
vt 0.818359 0.901855
vt 0.933105 0.901855
vt 0.790527 0.969727
vt 0.960938 0.969727
vt 0.942383 0.175903
vt 0.992676 0.102417
vt 0.808594 0.175903
vt 0.758301 0.102417
vt 0.942383 0.175903
vt 0.992676 0.102417
vt 0.808594 0.175903
vt 0.758301 0.102417
vt 0.942383 0.175903
vt 0.992676 0.102417
vt 0.808594 0.175903
vt 0.758301 0.102417
vt 0.942383 0.175903
vt 0.992676 0.102417
vt 0.808594 0.175903
vt 0.758301 0.102417
vt 0.808594 0.175903
vt 0.758301 0.102417
vt 0.942383 0.175903
vt 0.992676 0.102417
vt 0.808594 0.175903
vt 0.758301 0.102417
vt 0.942383 0.175903
vt 0.992676 0.102417
vt 0.808594 0.175903
vt 0.758301 0.102417
vt 0.942383 0.175903
vt 0.992676 0.102417
vt 0.808594 0.175903
vt 0.758301 0.102417
vt 0.942383 0.175903
vt 0.992676 0.102417
vt 0.085266 0.260010
vt 0.306641 0.370850
vt 0.009415 0.277588
vt 0.009415 0.439697
vt 0.120483 0.222046
vt 0.444580 0.222046
vt 0.085266 0.260010
vt 0.306641 0.370850
vt 0.085266 0.184082
vt 0.306641 0.073364
vt 0.120483 0.222046
vt 0.444580 0.222046
vt 0.009415 0.166504
vt 0.009415 0.004395
vt 0.085266 0.184082
vt 0.306641 0.073364
vt 0.085266 0.184082
vt 0.306641 0.073364
vt 0.009415 0.166504
vt 0.009415 0.004395
vt 0.120483 0.222046
vt 0.444580 0.222046
vt 0.085266 0.184082
vt 0.306641 0.073364
vt 0.085266 0.260010
vt 0.306641 0.370850
vt 0.120483 0.222046
vt 0.444580 0.222046
vt 0.009415 0.277588
vt 0.009415 0.439697
vt 0.085266 0.260010
vt 0.306641 0.370850
vt 0.249146 0.404785
vt 0.270752 0.415771
vt 0.728516 0.293457
vt 0.728516 0.309326
vt 0.026611 0.644531
vt 0.058441 0.644531
vt 0.249146 0.404785
vt 0.270752 0.415771
vt 0.249146 0.884766
vt 0.270752 0.873535
vt 0.026611 0.644531
vt 0.058441 0.644531
vt 0.728516 0.996094
vt 0.728516 0.979980
vt 0.249146 0.884766
vt 0.270752 0.873535
vt 0.249146 0.884766
vt 0.270752 0.873535
vt 0.728516 0.996094
vt 0.728516 0.979980
vt 0.026611 0.644531
vt 0.058441 0.644531
vt 0.249146 0.884766
vt 0.270752 0.873535
vt 0.249146 0.404785
vt 0.270752 0.415771
vt 0.026611 0.644531
vt 0.058441 0.644531
vt 0.728516 0.293457
vt 0.728516 0.309326
vt 0.249146 0.404785
vt 0.270752 0.415771
vt 0.270752 0.415771
vt 0.348145 0.454346
vt 0.728516 0.309326
vt 0.728516 0.365967
vt 0.171631 0.644531
vt 0.058441 0.644531
vt 0.348145 0.834961
vt 0.270752 0.873535
vt 0.728516 0.923340
vt 0.728516 0.979980
vt 0.270752 0.873535
vt 0.348145 0.834961
vt 0.728516 0.979980
vt 0.728516 0.923340
vt 0.171631 0.644531
vt 0.058441 0.644531
vt 0.348145 0.454346
vt 0.270752 0.415771
vt 0.728516 0.365967
vt 0.728516 0.309326
vt 0.543945 0.115295
vt 0.479980 0.081482
vt 0.574219 0.081482
vt 0.479980 0.130981
vt 0.415527 0.115295
vt 0.385742 0.081482
vt 0.415527 0.047699
vt 0.479980 0.032013
vt 0.543945 0.047699
vt 0.348145 0.454346
vt 0.374023 0.467285
vt 0.728516 0.365967
vt 0.728516 0.385010
vt 0.171631 0.644531
vt 0.209595 0.644531
vt 0.348145 0.454346
vt 0.374023 0.467285
vt 0.348145 0.834961
vt 0.374023 0.822266
vt 0.171631 0.644531
vt 0.209595 0.644531
vt 0.728516 0.923340
vt 0.728516 0.904297
vt 0.348145 0.834961
vt 0.374023 0.822266
vt 0.348145 0.834961
vt 0.374023 0.822266
vt 0.728516 0.923340
vt 0.728516 0.904297
vt 0.171631 0.644531
vt 0.209595 0.644531
vt 0.348145 0.834961
vt 0.374023 0.822266
vt 0.348145 0.454346
vt 0.374023 0.467285
vt 0.171631 0.644531
vt 0.209595 0.644531
vt 0.728516 0.365967
vt 0.728516 0.385010
vt 0.348145 0.454346
vt 0.374023 0.467285
vt 0.409912 0.475098
vt 0.748535 0.644531
vt 0.748535 0.396484
vt 0.252686 0.644531
vt 0.409912 0.814453
vt 0.748535 0.893066
vt 0.409912 0.814453
vt 0.748535 0.644531
vt 0.748535 0.893066
vt 0.252686 0.644531
vt 0.409912 0.475098
vt 0.748535 0.396484
vt 0.730957 0.080017
vt 0.616699 0.080017
vt 0.730957 0.027893
vt 0.616699 0.027893
vt 0.616699 0.132202
vt 0.730957 0.132202
vt 0.616699 0.184326
vt 0.730957 0.184326
vt 0.616699 0.236450
vt 0.730957 0.236450
vt 0.730957 0.236450
vt 0.616699 0.236450
vt 0.730957 0.184326
vt 0.616699 0.184326
vt 0.730957 0.132202
vt 0.616699 0.132202
vt 0.730957 0.080017
vt 0.616699 0.080017
vt 0.730957 0.027893
vt 0.616699 0.027893
vn 0.9071 0.0000 -0.4210
vn 0.4210 0.0000 -0.9071
vn -0.4210 0.0000 -0.9071
vn -0.9071 0.0000 -0.4210
vn -0.9071 0.0000 0.4210
vn -0.4210 0.0000 0.9071
vn 0.4210 -0.0000 0.9071
vn 0.9071 0.0000 0.4210
vn 0.8612 -0.3139 -0.3997
vn 0.8927 0.1773 -0.4143
vn 0.9060 0.0483 -0.4205
vn 0.8323 -0.3975 -0.3863
vn 0.3997 -0.3139 -0.8612
vn 0.4143 0.1773 -0.8927
vn 0.4205 0.0483 -0.9060
vn 0.3863 -0.3975 -0.8323
vn -0.3997 -0.3139 -0.8612
vn -0.4143 0.1773 -0.8927
vn -0.4205 0.0483 -0.9060
vn -0.3863 -0.3975 -0.8323
vn -0.8612 -0.3139 -0.3997
vn -0.8927 0.1773 -0.4143
vn -0.9060 0.0483 -0.4205
vn -0.8323 -0.3975 -0.3863
vn -0.8612 -0.3139 0.3997
vn -0.8927 0.1773 0.4143
vn -0.9060 0.0483 0.4205
vn -0.8323 -0.3975 0.3863
vn -0.3997 -0.3139 0.8612
vn -0.4143 0.1773 0.8927
vn -0.4205 0.0483 0.9060
vn -0.3863 -0.3975 0.8323
vn 0.3997 -0.3139 0.8612
vn 0.4143 0.1773 0.8927
vn 0.4205 0.0483 0.9060
vn 0.3863 -0.3975 0.8323
vn 0.8612 -0.3139 0.3997
vn 0.8927 0.1773 0.4143
vn 0.9060 0.0483 0.4205
vn 0.8323 -0.3975 0.3863
vn 0.6719 0.6719 -0.3118
vn 0.6719 0.6719 0.3118
vn 0.3118 0.6719 0.6719
vn -0.3118 0.6719 0.6718
vn -0.3118 0.6719 0.6719
vn -0.6719 0.6718 0.3118
vn -0.6719 0.6719 0.3118
vn -0.6719 0.6719 -0.3118
vn -0.6718 0.6719 -0.3118
vn -0.3118 0.6719 -0.6719
vn 0.3118 0.6719 -0.6719
vn 0.3114 -0.9392 -0.1445
vn 0.1445 -0.9392 -0.3114
vn -0.1445 -0.9392 -0.3114
vn -0.3114 -0.9392 -0.1445
vn -0.3114 -0.9392 0.1445
vn -0.1445 -0.9392 0.3114
vn 0.1445 -0.9392 0.3114
vn 0.3114 -0.9392 0.1445
vn 0.8220 0.4228 -0.3815
vn 0.3815 0.4228 -0.8220
vn -0.3815 0.4228 -0.8220
vn -0.8220 0.4228 -0.3815
vn -0.8220 0.4228 0.3815
vn -0.3815 0.4228 0.8220
vn 0.3815 0.4228 0.8220
vn 0.8220 0.4228 0.3815
vn 0.0000 1.0000 0.0000
vn 0.3343 0.9296 -0.1551
vn 0.1551 0.9296 -0.3343
vn -0.1551 0.9296 -0.3343
vn -0.3343 0.9296 -0.1551
vn -0.3343 0.9296 0.1551
vn -0.1551 0.9296 0.3343
vn 0.1551 0.9296 0.3343
vn 0.3343 0.9296 0.1551
vn -0.6157 0.7344 0.2857
vn -0.6156 0.7344 0.2857
vn -0.2857 0.7344 0.6156
vn -0.2857 0.7344 0.6157
vn 0.2857 0.7344 0.6157
vn 0.2857 0.7344 0.6156
vn 0.6156 0.7344 0.2857
vn 0.6157 0.7344 0.2857
vn 0.6157 0.7344 -0.2857
vn 0.6156 0.7344 -0.2857
vn 0.2857 0.7344 -0.6156
vn 0.2857 0.7344 -0.6157
vn -0.2857 0.7344 -0.6156
vn -0.6156 0.7344 -0.2857
vn -0.6157 0.7344 -0.2857
vn 0.8717 0.2764 -0.4046
vn 0.8717 0.2764 0.4046
vn 0.4046 0.2764 0.8717
vn -0.4046 0.2764 0.8717
vn 0.4046 0.2764 -0.8717
vn -0.4046 0.2764 -0.8717
vn -0.8717 0.2764 -0.4046
vn -0.8717 0.2764 0.4046
g birdbath_res_birdbath_res_None
usemtl None
s off
f 1/1/1 2/2/1 3/3/1
f 4/4/1 3/3/1 2/2/1
f 5/5/2 6/6/2 7/7/2
f 8/8/2 7/7/2 6/6/2
f 9/9/3 10/10/3 11/11/3
f 12/12/3 11/11/3 10/10/3
f 13/13/4 14/14/4 15/15/4
f 16/16/4 15/15/4 14/14/4
f 17/17/5 18/18/5 19/19/5
f 20/20/5 19/19/5 18/18/5
f 21/21/6 22/22/6 23/23/6
f 24/24/6 23/23/6 22/22/6
f 25/25/7 26/26/7 27/27/7
f 28/28/7 27/27/7 26/26/7
f 29/29/8 30/30/8 31/31/8
f 32/32/8 31/31/8 30/30/8
f 33/33/9 34/34/9 35/35/9
f 36/36/9 35/35/9 34/34/9
f 35/35/10 37/37/10 33/33/10
f 38/38/10 33/33/10 37/37/10
f 37/37/11 39/39/11 38/38/11
f 40/40/11 38/38/11 39/39/11
f 39/39/12 41/41/12 40/40/12
f 42/42/12 40/40/12 41/41/12
f 43/43/13 44/44/13 45/45/13
f 46/46/13 45/45/13 44/44/13
f 45/45/14 47/47/14 43/43/14
f 48/48/14 43/43/14 47/47/14
f 47/47/15 49/49/15 48/48/15
f 50/50/15 48/48/15 49/49/15
f 49/49/16 51/51/16 50/50/16
f 52/52/16 50/50/16 51/51/16
f 53/53/17 54/54/17 55/55/17
f 56/56/17 55/55/17 54/54/17
f 55/55/18 57/57/18 53/53/18
f 58/58/18 53/53/18 57/57/18
f 57/57/19 59/59/19 58/58/19
f 60/60/19 58/58/19 59/59/19
f 59/59/20 61/61/20 60/60/20
f 62/62/20 60/60/20 61/61/20
f 63/63/21 64/64/21 65/65/21
f 66/66/21 65/65/21 64/64/21
f 65/65/22 67/67/22 63/63/22
f 68/68/22 63/63/22 67/67/22
f 67/67/23 69/69/23 68/68/23
f 70/70/23 68/68/23 69/69/23
f 69/69/24 71/71/24 70/70/24
f 72/72/24 70/70/24 71/71/24
f 73/73/25 74/74/25 75/75/25
f 76/76/25 75/75/25 74/74/25
f 75/75/26 77/77/26 73/73/26
f 78/78/26 73/73/26 77/77/26
f 77/77/27 79/79/27 78/78/27
f 80/80/27 78/78/27 79/79/27
f 79/79/28 81/81/28 80/80/28
f 82/82/28 80/80/28 81/81/28
f 83/83/29 84/84/29 85/85/29
f 86/86/29 85/85/29 84/84/29
f 85/85/30 87/87/30 83/83/30
f 88/88/30 83/83/30 87/87/30
f 87/87/31 89/89/31 88/88/31
f 90/90/31 88/88/31 89/89/31
f 89/89/32 91/91/32 90/90/32
f 92/92/32 90/90/32 91/91/32
f 93/93/33 94/94/33 95/95/33
f 96/96/33 95/95/33 94/94/33
f 95/95/34 97/97/34 93/93/34
f 98/98/34 93/93/34 97/97/34
f 97/97/35 99/99/35 98/98/35
f 100/100/35 98/98/35 99/99/35
f 99/99/36 101/101/36 100/100/36
f 102/102/36 100/100/36 101/101/36
f 103/103/37 104/104/37 105/105/37
f 106/106/37 105/105/37 104/104/37
f 105/105/38 107/107/38 103/103/38
f 108/108/38 103/103/38 107/107/38
f 107/107/39 109/109/39 108/108/39
f 110/110/39 108/108/39 109/109/39
f 109/109/40 111/111/40 110/110/40
f 112/112/40 110/110/40 111/111/40
f 113/113/41 114/114/41 115/115/41
f 116/116/41 115/115/41 114/114/41
f 117/117/42 118/118/42 119/119/42
f 120/120/42 119/119/42 118/118/42
f 121/121/43 122/122/43 123/123/43
f 124/124/43 123/123/43 122/122/43
f 125/125/44 126/126/44 127/127/44
f 128/128/45 127/127/45 126/126/45
f 129/129/46 130/130/46 131/131/46
f 132/132/47 131/131/47 130/130/47
f 133/133/48 134/134/48 135/135/48
f 136/136/49 135/135/49 134/134/49
f 137/137/50 138/138/50 139/139/50
f 140/140/50 139/139/50 138/138/50
f 141/141/51 142/142/51 143/143/51
f 144/144/51 143/143/51 142/142/51
f 145/145/52 146/146/52 147/147/52
f 148/148/52 147/147/52 146/146/52
f 149/149/53 150/150/53 151/151/53
f 152/152/53 151/151/53 150/150/53
f 153/153/54 154/154/54 155/155/54
f 156/156/54 155/155/54 154/154/54
f 157/157/55 158/158/55 159/159/55
f 160/160/55 159/159/55 158/158/55
f 161/161/56 162/162/56 163/163/56
f 164/164/56 163/163/56 162/162/56
f 165/165/57 166/166/57 167/167/57
f 168/168/57 167/167/57 166/166/57
f 169/169/58 170/170/58 171/171/58
f 172/172/58 171/171/58 170/170/58
f 173/173/59 174/174/59 175/175/59
f 176/176/59 175/175/59 174/174/59
f 177/177/60 178/178/60 179/179/60
f 180/180/60 179/179/60 178/178/60
f 181/181/61 182/182/61 183/183/61
f 184/184/61 183/183/61 182/182/61
f 185/185/62 186/186/62 187/187/62
f 188/188/62 187/187/62 186/186/62
f 189/189/63 190/190/63 191/191/63
f 192/192/63 191/191/63 190/190/63
f 193/193/64 194/194/64 195/195/64
f 196/196/64 195/195/64 194/194/64
f 197/197/65 198/198/65 199/199/65
f 200/200/65 199/199/65 198/198/65
f 201/201/66 202/202/66 203/203/66
f 204/204/66 203/203/66 202/202/66
f 205/205/67 206/206/67 207/207/67
f 208/208/67 207/207/67 206/206/67
f 209/209/68 210/210/68 211/211/68
f 212/212/68 211/211/68 210/210/68
f 210/210/68 209/209/68 213/213/68
f 214/214/68 213/213/68 209/209/68
f 213/213/68 214/214/68 215/215/68
f 216/216/68 215/215/68 214/214/68
f 215/215/68 216/216/68 217/217/68
f 218/218/68 217/217/68 216/216/68
f 219/219/68 220/220/68 221/221/68
f 222/222/68 221/221/68 220/220/68
f 220/220/68 219/219/68 223/223/68
f 224/224/68 223/223/68 219/219/68
f 223/223/68 224/224/68 225/225/68
f 226/226/68 225/225/68 224/224/68
f 225/225/68 226/226/68 227/227/68
f 228/228/68 227/227/68 226/226/68
f 229/229/69 230/230/69 231/231/69
f 232/232/70 230/230/70 229/229/70
f 233/233/71 230/230/71 232/232/71
f 234/234/72 230/230/72 233/233/72
f 235/235/73 230/230/73 234/234/73
f 236/236/74 230/230/74 235/235/74
f 237/237/75 230/230/75 236/236/75
f 231/231/76 230/230/76 237/237/76
f 238/238/77 239/239/77 240/240/77
f 241/241/78 240/240/78 239/239/78
f 242/242/79 243/243/79 244/244/79
f 245/245/80 244/244/80 243/243/80
f 246/246/81 247/247/81 248/248/81
f 249/249/82 248/248/82 247/247/82
f 250/250/83 251/251/83 252/252/83
f 253/253/84 252/252/84 251/251/84
f 254/254/85 255/255/85 256/256/85
f 257/257/86 256/256/86 255/255/86
f 258/258/87 259/259/87 260/260/87
f 261/261/88 260/260/88 259/259/88
f 262/262/89 263/263/89 264/264/89
f 265/265/89 264/264/89 263/263/89
f 266/266/90 267/267/90 268/268/90
f 269/269/91 268/268/91 267/267/91
f 270/270/68 271/271/68 272/272/68
f 273/273/68 271/271/68 270/270/68
f 274/274/68 271/271/68 273/273/68
f 275/275/68 271/271/68 274/274/68
f 276/276/68 277/277/68 278/278/68
f 279/279/68 277/277/68 276/276/68
f 280/280/68 277/277/68 279/279/68
f 281/281/68 277/277/68 280/280/68
f 282/282/92 283/283/92 284/284/92
f 285/285/92 284/284/92 283/283/92
f 283/283/93 282/282/93 286/286/93
f 287/287/93 286/286/93 282/282/93
f 286/286/94 287/287/94 288/288/94
f 289/289/94 288/288/94 287/287/94
f 288/288/95 289/289/95 290/290/95
f 291/291/95 290/290/95 289/289/95
f 292/292/96 293/293/96 294/294/96
f 295/295/96 294/294/96 293/293/96
f 294/294/97 295/295/97 296/296/97
f 297/297/97 296/296/97 295/295/97
f 296/296/98 297/297/98 298/298/98
f 299/299/98 298/298/98 297/297/98
f 298/298/99 299/299/99 300/300/99
f 301/301/99 300/300/99 299/299/99
