# Blender v2.82 (sub 7) OBJ File: ''
# www.blender.org
mtllib museum.mtl
v 0.084756 55.664787 46.441727
v 0.084756 55.664795 -46.552197
v -73.165108 30.399235 -46.552277
v -73.165108 30.399296 46.441719
v 73.334618 30.399296 46.441792
v 73.334618 30.399235 -46.552277
v 0.084756 55.664795 -46.552197
v 0.084756 55.664787 46.441727
v 68.071983 18.997332 44.890728
v 68.071983 18.997324 -45.001141
v 73.334618 30.399235 -46.552277
v 73.334618 30.399296 46.441792
v 68.071983 18.997324 -45.001141
v 0.084756 41.635620 -45.001137
v 0.084756 55.664795 -46.552197
v 73.334618 30.399235 -46.552277
v 0.084756 41.635620 -45.001137
v -67.902473 18.997324 -45.001141
v -73.165108 30.399235 -46.552277
v 0.084756 55.664795 -46.552197
v -67.902473 18.997324 -45.001141
v -67.902473 18.997332 44.890728
v -73.165108 30.399296 46.441719
v -73.165108 30.399235 -46.552277
v -67.902473 18.997332 44.890728
v 0.084756 41.635681 44.890656
v 0.084756 55.664787 46.441727
v -73.165108 30.399296 46.441719
v 0.084756 41.635681 44.890656
v 68.071983 18.997332 44.890728
v 73.334618 30.399296 46.441792
v 0.084756 55.664787 46.441727
v 68.071983 18.997324 -45.001141
v 62.603882 20.948830 -37.378830
v 0.084756 41.774132 -37.378826
v 0.084756 41.635620 -45.001137
v -67.902473 18.997332 44.890728
v -62.434372 20.948828 38.600101
v 0.084756 41.774124 38.600105
v 0.084756 41.635681 44.890656
v -67.902473 18.997324 -45.001141
v -62.434372 20.948830 -37.378830
v -62.434372 20.948828 38.600101
v -67.902473 18.997332 44.890728
v 68.071983 18.997332 44.890728
v 62.603882 20.948828 38.600101
v 62.603882 20.948830 -37.378830
v 68.071983 18.997324 -45.001141
v 0.084756 41.635620 -45.001137
v 0.084756 41.774132 -37.378826
v -62.434372 20.948830 -37.378830
v -67.902473 18.997324 -45.001141
v 0.084756 41.635681 44.890656
v 0.084756 41.774124 38.600105
v 62.603882 20.948828 38.600101
v 68.071983 18.997332 44.890728
v -62.434372 -13.198215 38.600098
v 62.603882 -13.198215 38.600098
v 62.603882 20.948828 38.600101
v -62.434372 20.948828 38.600101
v 62.603882 -13.198215 38.600098
v 62.603882 -13.198200 -37.378834
v 62.603882 20.948830 -37.378830
v 62.603882 20.948828 38.600101
v 62.603882 -13.198200 -37.378834
v -62.434372 -13.198200 -37.378834
v -62.434372 20.948830 -37.378830
v 62.603882 20.948830 -37.378830
v -62.434372 -13.198200 -37.378834
v -62.434372 -13.198215 38.600098
v -62.434372 20.948828 38.600101
v -62.434372 20.948830 -37.378830
v 0.084756 41.774124 38.600105
v 0.084756 41.774132 -37.378826
v 27.096228 -16.711349 46.795361
v 27.096228 -16.711349 44.924488
v 27.096228 -13.198212 44.958916
v 27.096228 -16.711349 46.795361
v 27.096228 15.853032 46.795368
v 12.301734 15.853024 46.795368
v 12.301734 -16.711349 46.795361
v 12.301734 -16.711349 46.795361
v 12.301734 15.853024 46.795368
v 12.301734 15.853033 40.000710
v 12.301734 -16.711353 39.966274
v 12.301734 15.853024 46.795368
v 27.096228 15.853032 46.795368
v 27.949589 15.853032 48.205208
v 27.096228 15.853032 46.795368
v 27.096228 15.853033 38.395218
v 27.950760 15.853033 38.395218
v 27.949589 15.853032 48.205208
v 27.096228 -13.198215 38.395214
v 27.096228 -13.198212 44.958916
v 70.250725 -13.198212 44.958916
v 27.096228 -13.198212 44.958916
v 27.096228 -16.711349 44.924488
v 70.250725 -16.711349 44.924488
v 70.250725 -13.198212 44.958916
v 70.250725 -13.198212 44.958916
v 70.250725 -16.711349 44.924488
v 70.250725 -16.711342 -45.103840
v 70.250725 -13.198204 -45.069412
v 70.250725 -13.198204 -45.069412
v 62.603882 -13.198200 -37.378834
v 62.603882 -13.198215 38.600098
v 27.949589 22.540861 48.205208
v 27.949589 15.853032 48.205208
v 27.950760 15.853033 38.395218
v 27.950760 24.118759 38.395218
v 27.096228 15.853033 38.395218
v 27.096228 -13.198215 38.395214
v 27.096228 15.853032 46.795368
v 12.301734 -16.711349 46.795361
v 12.301734 -16.711353 39.966274
v 27.096228 -16.711349 44.924488
v 27.096228 -16.711349 46.795361
v -26.926718 -16.711349 46.795361
v -26.926718 -13.198212 44.958916
v -26.926718 -16.711349 44.924488
v 12.301734 15.853033 40.000710
v -12.132222 15.853033 40.000710
v -12.132222 -16.711353 39.966274
v 12.301734 -16.711353 39.966274
v -12.132222 15.853032 46.795368
v -26.926718 15.853039 46.795368
v -26.926718 -16.711349 46.795361
v -12.132222 -16.711349 46.795361
v 27.949589 15.853032 48.205208
v 27.949589 22.540861 48.205208
v -27.780079 22.540869 48.205208
v -27.780079 15.853039 48.205208
v -12.132222 -16.711349 46.795361
v -12.132222 -16.711353 39.966274
v -12.132222 15.853033 40.000710
v -12.132222 15.853032 46.795368
v -12.132222 15.853032 46.795368
v -12.132222 15.853033 40.000710
v 12.301734 15.853033 40.000710
v -27.780079 15.853039 48.205208
v -26.926718 15.853039 46.795368
v -26.926718 15.853039 46.795368
v -27.780079 15.853039 48.205208
v -27.781250 15.853047 38.395218
v -26.926718 15.853041 38.395218
v 70.250725 -16.711342 -45.103840
v -70.081215 -16.711342 -45.069416
v -70.081215 -13.198204 -45.069412
v 70.250725 -13.198204 -45.069412
v -26.926718 -13.198215 38.395214
v -70.081215 -13.198212 44.958916
v -26.926718 -13.198212 44.958916
v -70.081215 -16.711349 44.958912
v -26.926718 -16.711349 44.924488
v -26.926718 -13.198212 44.958916
v -70.081215 -13.198212 44.958916
v -70.081215 -16.711342 -45.069416
v -70.081215 -16.711349 44.958912
v -70.081215 -13.198212 44.958916
v -70.081215 -13.198204 -45.069412
v -70.081215 -13.198204 -45.069412
v -62.434372 -13.198200 -37.378834
v -62.434372 -13.198215 38.600098
v -27.781250 24.118774 38.395218
v -27.780079 22.540869 48.205208
v 27.949589 22.540861 48.205208
v 27.950760 24.118759 38.395218
v -27.781250 15.853047 38.395218
v -27.780079 15.853039 48.205208
v -27.780079 22.540869 48.205208
v -27.781250 24.118774 38.395218
v -26.926718 15.853041 38.395218
v -26.926718 -13.198215 38.395214
v -26.926718 15.853039 46.795368
v -12.132222 -16.711349 46.795361
v -26.926718 -16.711349 46.795361
v -26.926718 -16.711349 44.924488
v -12.132222 -16.711353 39.966274
v 70.250725 -16.711342 -45.103840
v -70.081215 -16.711342 -45.069416
v 70.250725 -16.711349 44.924488
v -70.081215 -16.711349 44.958912
vt 0.512690 0.836561
vt 0.258845 0.836561
vt 0.258845 0.553241
vt 0.512690 0.553241
vt 0.258845 0.836561
vt 0.005000 0.836561
vt 0.005000 0.553241
vt 0.258845 0.553241
vt 0.958573 0.434066
vt 0.954480 0.465586
vt 0.717269 0.465586
vt 0.713176 0.434066
vt 0.005000 0.878996
vt 0.019772 0.848093
vt 0.210291 0.908079
vt 0.210291 0.945930
vt 0.210291 0.945930
vt 0.210291 0.908079
vt 0.400810 0.848094
vt 0.415582 0.878997
vt 0.957552 0.388017
vt 0.953459 0.419538
vt 0.716249 0.419538
vt 0.712155 0.388017
vt 0.525598 0.878902
vt 0.540429 0.848093
vt 0.730833 0.909264
vt 0.730741 0.947113
vt 0.730741 0.947113
vt 0.730833 0.909264
vt 0.921528 0.851097
vt 0.936208 0.882139
vt 0.262461 0.541188
vt 0.005000 0.541188
vt 0.025707 0.519943
vt 0.262461 0.519943
vt 0.262461 0.290638
vt 0.519923 0.290638
vt 0.499216 0.308171
vt 0.262461 0.308171
vt 0.519923 0.290638
vt 0.519923 0.541188
vt 0.499216 0.519943
vt 0.499216 0.308171
vt 0.005000 0.541188
vt 0.005000 0.290638
vt 0.025707 0.308171
vt 0.025707 0.519943
vt 0.519923 0.541188
vt 0.262461 0.541188
vt 0.262461 0.519943
vt 0.499216 0.519943
vt 0.005000 0.290638
vt 0.262461 0.290638
vt 0.262461 0.308171
vt 0.025707 0.308171
vt 0.576848 0.720863
vt 0.576848 0.628914
vt 0.923770 0.628914
vt 0.923770 0.720863
vt 0.544027 0.167788
vt 0.544027 0.087927
vt 0.722669 0.087927
vt 0.722669 0.167788
vt 0.090650 0.428330
vt 0.090650 0.336333
vt 0.437394 0.336333
vt 0.437394 0.428330
vt 0.548634 0.077741
vt 0.548634 0.005000
vt 0.744762 0.005000
vt 0.744762 0.077741
vt 0.750309 0.776941
vt 0.264022 0.484436
vt 0.546281 0.540849
vt 0.542701 0.540849
vt 0.542767 0.530755
vt 0.584748 0.540849
vt 0.546281 0.540849
vt 0.546281 0.447278
vt 0.584748 0.447278
vt 0.597817 0.540849
vt 0.584748 0.540849
vt 0.584748 0.447278
vt 0.597751 0.447278
vt 0.521659 0.986987
vt 0.577235 0.986987
vt 0.580441 0.990885
vt 0.580441 0.990885
vt 0.577235 0.986987
vt 0.577235 0.963761
vt 0.580445 0.963761
vt 0.846775 0.573169
vt 0.846775 0.554331
vt 0.986625 0.554331
vt 0.986625 0.554331
vt 0.846775 0.554331
vt 0.846776 0.547552
vt 0.986084 0.547552
vt 0.986672 0.830654
vt 0.986625 0.554331
vt 0.993683 0.554331
vt 0.993772 0.831237
vt 0.986672 0.830654
vt 0.960852 0.807422
vt 0.960854 0.573169
vt 0.350510 0.933047
vt 0.377689 0.936191
vt 0.377689 0.949519
vt 0.350510 0.949519
vt 0.530205 0.447278
vt 0.530205 0.530755
vt 0.546281 0.447278
vt 0.370048 0.277518
vt 0.314473 0.277518
vt 0.314473 0.258636
vt 0.370048 0.272345
vt 0.659094 0.541898
vt 0.662581 0.531533
vt 0.662646 0.541898
vt 0.606041 0.345923
vt 0.606041 0.433854
vt 0.538436 0.433854
vt 0.538436 0.345923
vt 0.620932 0.541898
vt 0.620932 0.445826
vt 0.659094 0.445826
vt 0.659094 0.541898
vt 0.587466 0.949520
vt 0.377689 0.949519
vt 0.377689 0.936191
vt 0.587466 0.936192
vt 0.620932 0.445826
vt 0.620932 0.541898
vt 0.607967 0.541898
vt 0.608032 0.445826
vt 0.429873 0.986987
vt 0.429873 0.968200
vt 0.521659 0.968200
vt 0.371091 0.990884
vt 0.374297 0.986987
vt 0.374297 0.963761
vt 0.374297 0.986987
vt 0.371091 0.990884
vt 0.371087 0.963761
vt 0.986672 0.830654
vt 0.986130 0.837504
vt 0.532113 0.837459
vt 0.531876 0.830372
vt 0.666129 0.573170
vt 0.532148 0.554331
vt 0.666128 0.554331
vt 0.532148 0.554331
vt 0.532657 0.547552
vt 0.666126 0.547552
vt 0.666128 0.554331
vt 0.531876 0.830372
vt 0.525388 0.830590
vt 0.525387 0.554331
vt 0.532148 0.554331
vt 0.557095 0.807681
vt 0.531876 0.830372
vt 0.556822 0.573170
vt 0.377685 0.909013
vt 0.587470 0.909014
vt 0.587466 0.936192
vt 0.377689 0.936191
vt 0.614645 0.933048
vt 0.614645 0.949520
vt 0.587466 0.949520
vt 0.587466 0.936192
vt 0.675043 0.445826
vt 0.675043 0.531533
vt 0.659094 0.445826
vt 0.222686 0.258636
vt 0.222686 0.277518
vt 0.167110 0.277518
vt 0.167110 0.272345
vt 0.005000 0.023523
vt 0.532159 0.023428
vt 0.532159 0.272345
vt 0.005000 0.272440
vn -0.3261 0.9453 -0.0000
vn 0.3261 0.9453 -0.0000
vn 0.9080 -0.4191 0.0000
vn -0.0384 -0.1132 -0.9928
vn -0.0384 -0.1131 -0.9928
vn 0.0384 -0.1132 -0.9928
vn -0.9080 -0.4191 0.0000
vn 0.0384 -0.1132 0.9928
vn 0.0384 -0.1131 0.9928
vn -0.0384 -0.1132 0.9928
vn -0.3159 -0.9486 0.0166
vn -0.3159 -0.9487 0.0163
vn -0.3159 -0.9486 0.0167
vn -0.3160 -0.9486 0.0172
vn 0.3159 -0.9486 -0.0205
vn 0.3159 -0.9486 -0.0200
vn 0.3159 -0.9486 -0.0201
vn 0.3159 -0.9486 -0.0204
vn 0.3361 -0.9418 0.0000
vn -0.3361 -0.9418 0.0000
vn 0.3160 -0.9486 0.0163
vn 0.3159 -0.9486 0.0169
vn 0.3159 -0.9486 0.0172
vn 0.3159 -0.9486 0.0167
vn -0.3159 -0.9486 -0.0202
vn -0.3159 -0.9486 -0.0204
vn -0.3159 -0.9486 -0.0201
vn 0.0000 -0.0000 1.0000
vn 1.0000 -0.0000 0.0000
vn 0.0000 0.0000 -1.0000
vn -1.0000 0.0000 0.0000
vn -0.0000 -1.0000 0.0000
vn 0.0000 1.0000 -0.0000
vn 0.0000 -0.0098 1.0000
vn 1.0000 0.0000 0.0001
vn 0.0000 -0.0011 1.0000
vn -0.0001 0.0049 -1.0000
vn 0.0004 -0.0049 1.0000
vn 0.0000 0.9873 0.1588
vn -1.0000 0.0000 0.0001
g Building_Mesh_Building
usemtl Building
s 1
f 4/1/1 1/2/1 2/3/1
f 2/3/1 3/4/1 4/1/1
f 8/5/2 5/6/2 6/7/2
f 6/7/2 7/8/2 8/5/2
f 12/9/3 9/10/3 10/11/3
f 10/11/3 11/12/3 12/9/3
f 16/13/4 13/14/4 14/15/5
f 14/15/5 15/16/4 16/13/4
f 20/17/6 17/18/6 18/19/6
f 18/19/6 19/20/6 20/17/6
f 24/21/7 21/22/7 22/23/7
f 22/23/7 23/24/7 24/21/7
f 28/25/8 25/26/8 26/27/8
f 26/27/8 27/28/9 28/25/8
f 32/29/10 29/30/10 30/31/10
f 30/31/10 31/32/10 32/29/10
f 36/33/11 33/34/12 34/35/13
f 34/35/13 35/36/14 36/33/11
f 40/37/15 37/38/16 38/39/17
f 38/39/17 39/40/18 40/37/15
f 44/41/19 41/42/19 42/43/19
f 42/43/19 43/44/19 44/41/19
f 48/45/20 45/46/20 46/47/20
f 46/47/20 47/48/20 48/45/20
f 52/49/21 49/50/22 50/51/23
f 50/51/23 51/52/24 52/49/21
f 56/53/25 53/54/26 54/55/27
f 54/55/27 55/56/25 56/53/25
f 60/57/28 57/58/28 58/59/28
f 58/59/28 59/60/28 60/57/28
f 64/61/29 61/62/29 62/63/29
f 62/63/29 63/64/29 64/61/29
f 68/65/30 65/66/30 66/67/30
f 66/67/30 67/68/30 68/65/30
f 72/69/31 69/70/31 70/71/31
f 70/71/31 71/72/31 72/69/31
f 60/57/28 59/60/28 73/73/28
f 68/65/30 67/68/30 74/74/30
f 75/75/29 76/76/29 77/77/29
f 81/78/28 78/79/28 79/80/28
f 79/80/28 80/81/28 81/78/28
f 85/82/31 82/83/31 83/84/31
f 83/84/31 84/85/31 85/82/31
f 86/86/32 87/87/32 88/88/32
f 92/89/32 89/90/32 90/91/32
f 90/91/32 91/92/32 92/89/32
f 93/93/33 94/94/33 95/95/33
f 99/96/34 96/97/34 97/98/34
f 97/98/34 98/99/34 99/96/34
f 103/100/29 100/101/29 101/102/29
f 101/102/29 102/103/29 103/100/29
f 95/95/33 104/104/33 105/105/33
f 105/105/33 106/106/33 95/95/33
f 110/107/35 107/108/35 108/109/35
f 108/109/35 109/110/35 110/107/35
f 111/111/29 77/77/29 112/112/29
f 111/111/29 113/113/29 75/75/29
f 75/75/29 77/77/29 111/111/29
f 93/93/33 95/95/33 106/106/33
f 117/114/32 114/115/32 115/116/32
f 115/116/32 116/117/32 117/114/32
f 118/118/31 119/119/31 120/120/31
f 124/121/36 121/122/36 122/123/36
f 122/123/36 123/124/36 124/121/36
f 128/125/28 125/126/28 126/127/28
f 126/127/28 127/128/28 128/125/28
f 132/129/28 129/130/28 130/131/28
f 130/131/28 131/132/28 132/129/28
f 136/133/29 133/134/29 134/135/29
f 134/135/29 135/136/29 136/133/29
f 86/86/32 137/137/32 138/138/32
f 138/138/32 139/139/32 86/86/32
f 137/137/32 86/86/32 88/88/32
f 88/88/32 140/140/32 137/137/32
f 137/137/32 140/140/32 141/141/32
f 145/142/32 142/143/32 143/144/32
f 143/144/32 144/145/32 145/142/32
f 149/146/37 146/147/37 147/148/37
f 147/148/37 148/149/37 149/146/37
f 150/150/33 151/151/33 152/152/33
f 156/153/38 153/154/38 154/155/38
f 154/155/38 155/156/38 156/153/38
f 160/157/31 157/158/31 158/159/31
f 158/159/31 159/160/31 160/157/31
f 162/161/33 105/105/33 104/104/33
f 104/104/33 161/162/33 162/161/33
f 151/151/33 163/163/33 162/161/33
f 162/161/33 161/162/33 151/151/33
f 167/164/39 164/165/39 165/166/39
f 165/166/39 166/167/39 167/164/39
f 171/168/40 168/169/40 169/170/40
f 169/170/40 170/171/40 171/168/40
f 172/172/31 173/173/31 119/119/31
f 118/118/31 174/174/31 172/172/31
f 172/172/31 119/119/31 118/118/31
f 150/150/33 163/163/33 151/151/33
f 178/175/32 175/176/32 176/177/32
f 176/177/32 177/178/32 178/175/32
f 180/179/32 179/180/32 115/116/32
f 115/116/32 178/175/32 180/179/32
f 180/179/32 178/175/32 177/178/32
f 116/117/32 179/180/32 181/181/32
f 177/178/32 182/182/32 180/179/32
f 116/117/32 115/116/32 179/180/32
